<svg width="130" height="40" viewBox="0 0 130 40" fill="none" xmlns="http://www.w3.org/2000/svg">
<path d="M37.2667 28.3494C37.0628 27.8619 36.8716 27.3494 36.6677 26.9119L35.7245 24.8244L35.6863 24.7869C32.8824 18.7869 29.8873 12.6869 26.7138 6.68694L26.5863 6.43694C26.2677 5.84944 25.9491 5.19944 25.6177 4.59944C25.2098 3.88694 24.8147 3.12444 24.1647 2.39944C23.5311 1.64086 22.7338 1.02968 21.8301 0.610011C20.9265 0.190344 19.9391 -0.0273437 18.9392 -0.0273438C17.9394 -0.0273437 16.952 0.190344 16.0484 0.610011C15.1447 1.02968 14.3473 1.64086 13.7138 2.39944C13.1147 3.12444 12.6687 3.88694 12.2608 4.59944C11.9422 5.24944 11.6236 5.88694 11.2922 6.47444L11.1647 6.72444C8.04219 12.7244 4.99611 18.8244 2.19219 24.8244L2.11572 24.8994C1.83532 25.5494 1.50395 26.2244 1.18532 26.9494C0.981402 27.3869 0.77748 27.8619 0.573559 28.3869C0.0230119 29.7617 -0.152795 31.2534 0.0634643 32.715C0.279724 34.1767 0.880585 35.5579 1.80683 36.7225C2.73308 37.887 3.95274 38.7948 5.34561 39.3562C6.73848 39.9177 8.25649 40.1136 9.75003 39.9244C11.1819 39.7396 12.5607 39.2718 13.803 38.5494C15.4598 37.6369 17.053 36.3119 18.8373 34.3994C20.6216 36.3119 22.253 37.6369 23.8716 38.5619C25.4282 39.458 27.1909 39.9526 28.9951 39.9994C31.0845 40.0079 33.1065 39.2748 34.6877 37.9353C36.2689 36.5959 37.3027 34.7406 37.5981 32.7119C37.9394 31.2542 37.8239 29.7293 37.2667 28.3369V28.3494ZM18.9647 30.4244C16.7726 27.6744 15.3451 25.1494 14.8608 22.9869C14.6602 22.1856 14.6169 21.3541 14.7334 20.5369C14.8226 19.8994 15.0647 19.3369 15.3961 18.8619C16.1608 17.7744 17.4991 17.0994 18.9647 17.0994C19.6608 17.0786 20.3512 17.2276 20.9741 17.533C21.597 17.8384 22.1327 18.2908 22.5334 18.8494C22.8647 19.3494 23.1069 19.8994 23.1834 20.5369C23.3108 21.2619 23.2598 22.0994 23.0559 22.9869C22.5716 25.1119 21.1441 27.6619 18.9647 30.4244ZM35.202 32.2744C35.0572 33.3044 34.6397 34.2791 33.9912 35.1016C33.3428 35.924 32.4859 36.5654 31.5059 36.9619C30.5373 37.3619 29.4667 37.4744 28.4216 37.3619C27.402 37.2369 26.3824 36.9119 25.3373 36.3119C23.602 35.2601 22.0417 33.9532 20.7108 32.4369C23.3873 29.1869 25.0059 26.2244 25.6177 23.5869C25.9108 22.3369 25.9491 21.2119 25.8216 20.1744C25.6624 19.191 25.2886 18.253 24.7255 17.4244C24.0827 16.526 23.2246 15.7962 22.2267 15.2993C21.2289 14.8023 20.1219 14.5534 19.003 14.5744C16.6451 14.5744 14.5422 15.6494 13.2677 17.4119C12.6939 18.2384 12.3231 19.1839 12.1843 20.1744C12.0187 21.2244 12.0569 22.3869 12.3883 23.5869C13 26.2244 14.6569 29.2244 17.2951 32.4619C15.9868 34.0071 14.4228 35.3255 12.6687 36.3619C11.6108 36.9619 10.604 37.2744 9.58434 37.3994C7.99871 37.5986 6.39698 37.176 5.12733 36.2233C3.85768 35.2707 3.02272 33.865 2.80395 32.3119C2.6765 31.3119 2.76572 30.3119 3.17356 29.1869C3.30101 28.7869 3.49219 28.3869 3.69611 27.9119C3.9765 27.2619 4.30787 26.5869 4.6265 25.9119L4.67748 25.8244C7.43042 19.8619 10.4383 13.7744 13.5608 7.81194L13.6883 7.56194C14.0069 6.96194 14.3255 6.32444 14.6569 5.72444C14.9883 5.08694 15.3451 4.47444 15.804 3.97444C16.2011 3.50947 16.6974 3.13553 17.2578 2.87896C17.8182 2.62239 18.4291 2.48943 19.0476 2.48943C19.666 2.48943 20.277 2.62239 20.8374 2.87896C21.3978 3.13553 21.8941 3.50947 22.2912 3.97444C22.7373 4.47444 23.1069 5.08694 23.4383 5.72444C23.7569 6.32444 24.0755 6.97444 24.4069 7.56194L24.5343 7.81194C27.6441 13.7744 30.652 19.8619 33.4559 25.8244L33.4942 25.8619C33.8255 26.5119 34.1059 27.2369 34.4245 27.8619C34.6285 28.3494 34.8324 28.7369 34.9598 29.1494C35.202 30.2744 35.3294 31.2744 35.202 32.2744ZM52.9432 30.1494C51.9828 30.1632 51.0315 29.9648 50.16 29.5688C49.2885 29.1728 48.5191 28.5894 47.9089 27.8619C46.5376 26.3119 45.8098 24.3133 45.8696 22.2619C45.8487 20.166 46.5999 18.133 47.9853 16.5369C48.6262 15.8002 49.4239 15.2102 50.3223 14.8085C51.2207 14.4068 52.198 14.2032 53.1853 14.2119C54.1144 14.187 55.0346 14.3942 55.8595 14.814C56.6844 15.2339 57.387 15.8526 57.901 16.6119L58.0285 14.6494H61.75V29.7494H58.0157L57.8883 27.5494C57.3583 28.3603 56.6258 29.0248 55.7603 29.4798C54.8948 29.9349 53.925 30.1654 52.9432 30.1494ZM53.9118 26.5494C54.651 26.5494 55.301 26.3494 55.9128 25.9869C56.4736 25.5869 56.9324 25.0619 57.2892 24.4244C57.6079 23.7869 57.7736 23.0244 57.7736 22.1744C57.8232 21.4362 57.6767 20.6979 57.3483 20.0318C57.0199 19.3658 56.5209 18.7947 55.9 18.3744C55.3035 18.0099 54.6147 17.8167 53.9118 17.8167C53.2089 17.8167 52.5201 18.0099 51.9236 18.3744C51.3628 18.7744 50.904 19.2994 50.5471 19.9369C50.2101 20.64 50.0443 21.4103 50.0628 22.1869C50.0131 22.9252 50.1596 23.6635 50.488 24.3295C50.8164 24.9956 51.3154 25.5667 51.9363 25.9869C52.5353 26.3494 53.1853 26.5494 53.9118 26.5494ZM68.1226 10.5744C68.1226 11.0119 68.0461 11.4119 67.8422 11.7369C67.6383 12.0494 67.3579 12.3369 66.9883 12.5369C66.6187 12.7369 66.2236 12.8119 65.8157 12.8119C65.4079 12.8119 65 12.7369 64.6304 12.5369C64.2809 12.3461 63.9869 12.0707 63.7765 11.7369C63.5791 11.3809 63.4823 10.9795 63.4961 10.5744C63.4961 10.1244 63.5853 9.72444 63.7765 9.41194C63.9804 9.03694 64.2736 8.81194 64.6304 8.61194C65 8.41194 65.3951 8.32444 65.8157 8.32444C66.2214 8.31527 66.6226 8.40951 66.98 8.59794C67.3374 8.78636 67.6389 9.06253 67.8549 9.39944C68.0404 9.76388 68.1323 10.1672 68.1226 10.5744ZM63.7892 29.6994V14.6244H67.8422V29.7244H63.7765L63.7892 29.6994ZM78.6755 18.5744V18.6244C78.4843 18.5369 78.2294 18.4994 78.0383 18.4619C77.7834 18.4119 77.5794 18.4119 77.3373 18.4119C76.203 18.4119 75.3491 18.7369 74.7883 19.4119C74.1765 20.0994 73.8961 21.0619 73.8961 22.2994V29.7119H69.8304V14.6119H73.5647L73.6922 16.8994C74.1 16.0994 74.5844 15.4994 75.2726 15.0494C75.9572 14.6122 76.7631 14.3939 77.5794 14.4244C77.8726 14.4244 78.153 14.4494 78.3951 14.4994C78.5226 14.5369 78.5991 14.5369 78.6755 14.5744V18.5744ZM80.3069 29.6994V8.42444H84.3598V16.5494C84.9334 15.8244 85.5834 15.2619 86.3991 14.8244C87.6904 14.2035 89.1574 14.0273 90.5633 14.3244C91.9692 14.6215 93.2321 15.3745 94.1481 16.4619C95.5224 18.0152 96.2504 20.0188 96.1873 22.0744C96.2083 24.1704 95.457 26.2034 94.0716 27.7994C93.4308 28.5362 92.6331 29.1262 91.7346 29.5279C90.8362 29.9295 89.8589 30.1332 88.8716 30.1244C87.9426 30.1494 87.0223 29.9422 86.1974 29.5224C85.3725 29.1025 84.67 28.4838 84.1559 27.7244L84.0285 29.6869L80.3069 29.7244V29.6994ZM88.1451 26.5494C88.8716 26.5494 89.5216 26.3494 90.1334 25.9869C90.6942 25.5869 91.153 25.0619 91.5098 24.4244C91.8412 23.7869 91.9942 23.0244 91.9942 22.1744C91.9942 21.3369 91.8412 20.5744 91.5098 19.9369C91.1751 19.3222 90.7049 18.7885 90.1334 18.3744C89.5368 18.0099 88.848 17.8167 88.1451 17.8167C87.4423 17.8167 86.7535 18.0099 86.1569 18.3744C85.5834 18.7744 85.1373 19.2994 84.7677 19.9369C84.4306 20.64 84.2648 21.4103 84.2834 22.1869C84.2337 22.9252 84.3802 23.6635 84.7086 24.3295C85.037 24.9956 85.536 25.5667 86.1569 25.9869C86.7559 26.3494 87.4059 26.5494 88.1451 26.5494ZM97.7167 29.7119V14.6119H101.451L101.578 16.5744C102.048 15.8222 102.713 15.2065 103.507 14.7912C104.3 14.3758 105.192 14.1758 106.09 14.2119C107.118 14.1945 108.127 14.4746 108.993 15.0171C109.859 15.5596 110.543 16.3404 110.959 17.2619C111.405 18.2119 111.647 19.3869 111.647 20.6994V29.7494H107.581V21.2244C107.581 20.1744 107.339 19.3494 106.855 18.7369C106.371 18.1369 105.708 17.8119 104.867 17.8119C104.255 17.8119 103.72 17.9369 103.248 18.2119C102.802 18.4994 102.432 18.8619 102.152 19.3744C101.869 19.8925 101.728 20.4742 101.744 21.0619V29.7119H97.7167ZM113.674 29.7119V8.41194H117.739V16.5369C118.29 15.8079 119.006 15.2148 119.832 14.8047C120.657 14.3946 121.568 14.1788 122.493 14.1744C123.454 14.1607 124.405 14.3591 125.276 14.7551C126.148 15.1511 126.917 15.7345 127.527 16.4619C128.892 18.0151 129.615 20.0126 129.554 22.0619C129.576 24.1581 128.825 26.1915 127.438 27.7869C126.797 28.5237 126 29.1137 125.101 29.5154C124.203 29.917 123.226 30.1207 122.238 30.1119C121.309 30.1369 120.389 29.9297 119.564 29.5099C118.739 29.09 118.037 28.4713 117.523 27.7119L117.408 29.6744L113.674 29.7119ZM121.55 26.5494C122.289 26.5494 122.939 26.3494 123.538 25.9869C124.112 25.5869 124.558 25.0619 124.927 24.4244C125.246 23.7869 125.412 23.0244 125.412 22.1744C125.461 21.4362 125.315 20.6979 124.987 20.0318C124.658 19.3658 124.159 18.7947 123.538 18.3744C122.942 18.0099 122.253 17.8167 121.55 17.8167C120.847 17.8167 120.158 18.0099 119.562 18.3744C119.001 18.7744 118.542 19.2994 118.185 19.9369C117.83 20.6337 117.663 21.4086 117.701 22.1869C117.651 22.9252 117.798 23.6635 118.126 24.3295C118.455 24.9956 118.954 25.5667 119.575 25.9869C120.174 26.3494 120.785 26.5494 121.55 26.5494Z" fill="#FF385C"/>
</svg>
