<svg width="132" height="38" viewBox="0 0 132 38" fill="none" xmlns="http://www.w3.org/2000/svg">
<path fill-rule="evenodd" clip-rule="evenodd" d="M83.1039 11.227L80.9251 7.57296L77.0576 9.39999L74.8787 5.73512L71.0112 7.57296L68.8433 3.89729L64.9758 5.73512L62.7969 2.07026L58.9294 3.9081L56.7615 0.232422L52.8831 2.07026L44.6797 28.5784L54.648 31.6054C55.0235 30.4106 55.8173 29.3885 56.8859 28.7238C57.9545 28.0591 59.2275 27.7957 60.4748 27.9811C61.7221 28.1665 62.8615 28.7885 63.6869 29.7347C64.5124 30.681 64.9696 31.889 64.9758 33.1405V33.2486C64.9976 33.7243 64.9431 34.2 64.8015 34.6757L74.9332 37.7567L83.1039 11.227Z" fill="#D61920"/>
<path fill-rule="evenodd" clip-rule="evenodd" d="M53.2313 26.3944C52.9793 26.3531 52.7506 26.2234 52.5867 26.0291C52.4228 25.8347 52.3346 25.5884 52.338 25.335V12.362C52.3365 12.2196 52.3637 12.0784 52.4179 11.9466C52.4722 11.8148 52.5524 11.695 52.6538 11.5943C52.7553 11.4937 52.876 11.4141 53.0088 11.3603C53.1416 11.3065 53.2839 11.2795 53.4274 11.2809H62.8728C63.4293 11.2795 63.9807 11.3869 64.4954 11.5969C65.0101 11.8069 65.4781 12.1155 65.8726 12.505C66.2672 12.8945 66.5805 13.3573 66.7948 13.867C67.0091 14.3767 67.1201 14.9233 67.1216 15.4755V25.335C67.1213 25.4942 67.0856 25.6514 67.0169 25.7953C66.9483 25.9392 66.8486 26.0664 66.7247 26.1676C66.6008 26.2688 66.456 26.3416 66.3005 26.3808C66.145 26.42 65.9827 26.4247 65.8251 26.3944C65.5751 26.3508 65.349 26.2201 65.1873 26.026C65.0256 25.8318 64.9389 25.5868 64.9427 25.335V15.4863C64.9427 14.9416 64.7246 14.4191 64.3364 14.0339C63.9483 13.6487 63.4218 13.4323 62.8728 13.4323H60.8138V25.3242C60.8146 25.469 60.7861 25.6126 60.73 25.7463C60.6738 25.88 60.5912 26.0011 60.4869 26.1025C60.3629 26.2246 60.2108 26.3149 60.0438 26.3658C59.8768 26.4166 59.6999 26.4265 59.5282 26.3944C59.2762 26.3531 59.0475 26.2234 58.8836 26.0291C58.7197 25.8347 58.6315 25.5884 58.6349 25.335V13.4323H54.5168V25.3242C54.5179 25.4832 54.4835 25.6405 54.4162 25.7848C54.349 25.9292 54.2504 26.057 54.1277 26.1592C54.0049 26.2614 53.8609 26.3355 53.706 26.3762C53.551 26.4168 53.389 26.4231 53.2313 26.3944ZM68.9409 32.0485C68.687 32.0069 68.4568 31.8757 68.2927 31.679C68.1286 31.4824 68.0415 31.2335 68.0476 30.9782C68.0488 30.6946 68.1622 30.4228 68.3635 30.2215C68.5647 30.0178 68.8388 29.9012 69.1261 29.8971C70.0521 29.8971 70.8474 29.3134 71.1089 28.4377L72.231 24.7296L68.5596 12.5458C68.5158 12.4095 68.4997 12.266 68.5122 12.1235C68.5247 11.981 68.5656 11.8424 68.6325 11.7157C68.6994 11.589 68.7909 11.4768 68.9018 11.3854C69.0127 11.2941 69.1408 11.2255 69.2786 11.1836C69.5531 11.1081 69.8462 11.1401 70.0976 11.2729C70.349 11.4056 70.5394 11.6291 70.6295 11.8971L73.3531 20.9782L76.1203 11.8971C76.251 11.3998 76.8066 11.0647 77.3731 11.1728L77.4494 11.1836C78.0377 11.3674 78.3645 11.9836 78.1902 12.5566L74.4099 25.0539L73.2115 29.0539C72.9426 29.9147 72.4093 30.6707 71.6863 31.2161C70.9508 31.7634 70.0563 32.0593 69.137 32.0593C69.0715 32.0618 69.0058 32.0582 68.9409 32.0485Z" fill="#FEFEFE"/>
<path fill-rule="evenodd" clip-rule="evenodd" d="M2.35499 24.027H4.49028C5.05948 24.027 5.60537 23.8026 6.00786 23.4032C6.41034 23.0038 6.63646 22.4621 6.63646 21.8972V15.6594C6.63789 15.3797 6.5838 15.1025 6.47726 14.8435C6.37073 14.5846 6.21385 14.349 6.01557 14.1503C5.81729 13.9515 5.58149 13.7934 5.32165 13.6851C5.06181 13.5768 4.78301 13.5203 4.50117 13.5188H2.35499V24.0053V24.027ZM1.01499 26.254C0.753406 26.2101 0.51626 26.0749 0.346424 25.8726C0.176588 25.6704 0.0852695 25.4145 0.0889757 25.1513V5.7783C0.08705 5.63008 0.114967 5.48297 0.171089 5.3456C0.227212 5.20822 0.31041 5.08335 0.415805 4.9783C0.543318 4.84691 0.701407 4.74862 0.876172 4.69207C1.05094 4.63552 1.23703 4.62244 1.41808 4.65398C1.9628 4.76209 2.35499 5.21614 2.35499 5.76749V11.281H4.49028C5.06918 11.2796 5.64268 11.3915 6.17793 11.6104C6.71318 11.8292 7.19966 12.1507 7.60951 12.5564C8.01937 12.9621 8.34454 13.4441 8.5664 13.9747C8.78827 14.5053 8.90247 15.0741 8.90247 15.6486V21.8864C8.8996 23.0439 8.43497 24.1531 7.61018 24.9716C6.7854 25.7901 5.66759 26.2511 4.50117 26.254H1.22198C1.14918 26.2583 1.07611 26.2546 1.0041 26.2432L1.01499 26.254Z" fill="#333545"/>
<path fill-rule="evenodd" clip-rule="evenodd" d="M16.5834 13.4324C16.4611 13.4112 16.3372 13.4003 16.213 13.3999C15.9304 13.397 15.65 13.4502 15.3883 13.5562C15.1266 13.6622 14.8888 13.8189 14.6889 14.0173C14.4891 14.2156 14.3311 14.4515 14.2243 14.7112C14.1174 14.9709 14.0639 15.2492 14.0668 15.5297V22.027C14.0654 22.307 14.1199 22.5846 14.2272 22.8437C14.3346 23.1027 14.4926 23.338 14.6922 23.5361C14.8918 23.7341 15.129 23.891 15.39 23.9975C15.651 24.104 15.9308 24.1581 16.213 24.1567C16.7822 24.1567 17.3281 23.9323 17.7306 23.5329C18.1331 23.1335 18.3592 22.5918 18.3592 22.027V15.5405C18.3592 14.4918 17.6075 13.6161 16.5834 13.4324ZM15.4395 26.3513C14.4181 26.173 13.4929 25.6424 12.8272 24.8532C12.1614 24.0641 11.798 23.0669 11.8008 22.0378V15.5405C11.7989 14.9655 11.9126 14.3958 12.1352 13.8649C12.3578 13.334 12.6848 12.8525 13.0972 12.4486C13.5063 12.0428 13.9921 11.7211 14.5268 11.5022C15.0615 11.2833 15.6346 11.1714 16.213 11.1729C17.3803 11.1729 18.4998 11.6331 19.3252 12.4521C20.1506 13.2712 20.6143 14.3821 20.6143 15.5405V22.0378C20.6143 23.2053 20.1567 24.308 19.3179 25.1405C18.9105 25.5455 18.4265 25.8667 17.8936 26.0856C17.3608 26.3045 16.7897 26.4168 16.213 26.4161C15.9537 26.4172 15.6949 26.3955 15.4395 26.3513ZM28.2948 13.4432C28.1725 13.4219 28.0486 13.4111 27.9244 13.4107C27.6417 13.4079 27.3613 13.461 27.0996 13.567C26.8379 13.673 26.6002 13.8297 26.4003 14.0281C26.2004 14.2264 26.0425 14.4624 25.9356 14.7221C25.8288 14.9817 25.7753 15.26 25.7782 15.5405V22.0378C25.7768 22.3178 25.8313 22.5954 25.9386 22.8545C26.046 23.1135 26.204 23.3489 26.4036 23.5469C26.6032 23.745 26.8403 23.9018 27.1014 24.0083C27.3624 24.1148 27.6421 24.1689 27.9244 24.1675C28.2066 24.1689 28.4864 24.1148 28.7474 24.0083C29.0084 23.9018 29.2456 23.745 29.4452 23.5469C29.6448 23.3489 29.8028 23.1135 29.9101 22.8545C30.0175 22.5954 30.072 22.3178 30.0706 22.0378V15.5405C30.0706 14.5026 29.3189 13.627 28.2948 13.4432ZM27.1509 26.3513C26.1314 26.1707 25.2088 25.6392 24.5453 24.8502C23.8817 24.0613 23.5198 23.0654 23.5231 22.0378V15.5405C23.5248 14.9033 23.6666 14.2743 23.9386 13.6971C24.2107 13.12 24.6063 12.6087 25.098 12.199C25.5897 11.7893 26.1656 11.4911 26.7855 11.325C27.4054 11.159 28.0543 11.1292 28.687 11.2378C29.7086 11.4135 30.6349 11.9415 31.3025 12.7286C31.9702 13.5158 32.3364 14.5116 32.3366 15.5405V22.0378C32.3379 22.6153 32.223 23.1872 31.9985 23.72C31.774 24.2529 31.4444 24.7358 31.0293 25.1405C30.6218 25.5455 30.1378 25.8667 29.605 26.0856C29.0722 26.3045 28.5011 26.4168 27.9244 26.4161C27.6629 26.4161 27.4015 26.3945 27.1509 26.3513ZM36.1605 26.3945C35.8989 26.3507 35.6617 26.2154 35.4919 26.0132C35.3221 25.8109 35.2308 25.5551 35.2345 25.2918V5.77831C35.2345 5.47561 35.3434 5.18372 35.5613 4.97831C35.6898 4.85242 35.847 4.75917 36.0196 4.70647C36.1922 4.65377 36.3751 4.64318 36.5527 4.67561C37.0974 4.7621 37.5005 5.22696 37.5005 5.77831V17.3243L42.708 11.5297C42.9694 11.2486 43.3616 11.1189 43.7538 11.1837C43.9516 11.2166 44.1368 11.3014 44.2903 11.4293C44.4439 11.5573 44.56 11.7237 44.6268 11.9114C44.6935 12.099 44.7083 12.3009 44.6698 12.4962C44.6312 12.6914 44.5406 12.8728 44.4075 13.0216L40.4746 17.3783L44.5382 24.7621C44.6114 24.8866 44.6587 25.0244 44.6774 25.1674C44.6961 25.3103 44.6858 25.4556 44.6471 25.5945C44.605 25.7377 44.5341 25.871 44.4386 25.9862C44.3431 26.1014 44.225 26.1962 44.0915 26.2648C43.8609 26.3964 43.5906 26.4424 43.3289 26.3945C43.1662 26.3672 43.0115 26.3046 42.8759 26.2112C42.7403 26.1178 42.6272 25.9958 42.5445 25.854L38.8841 19.1729L37.4896 20.6972V25.2918C37.4896 25.59 37.3702 25.876 37.1577 26.0868C36.9453 26.2977 36.6571 26.4161 36.3566 26.4161C36.2803 26.4161 36.2149 26.4161 36.1387 26.3945H36.1605ZM86.0673 26.3837C85.4547 26.2819 84.8727 26.0456 84.3638 25.6921C83.8549 25.3386 83.432 24.8768 83.1258 24.3405C82.9762 24.0777 82.937 23.7669 83.0169 23.4756C83.1041 23.1945 83.2893 22.9567 83.5398 22.8053C83.7725 22.6792 84.042 22.6372 84.3024 22.6864C84.6293 22.7405 84.9234 22.9351 85.0868 23.227C85.381 23.7243 85.8494 24.0486 86.4268 24.1459C86.7245 24.1972 87.03 24.1811 87.3206 24.0987C87.6111 24.0163 87.8791 23.8698 88.1045 23.6702C88.5403 23.2702 88.7582 22.6972 88.7037 22.1351C88.6916 21.8469 88.6114 21.5656 88.4694 21.314C88.3275 21.0623 88.1278 20.8473 87.8867 20.6864L84.8363 18.5351C84.3393 18.1888 83.9254 17.7379 83.6241 17.2147C83.3228 16.6915 83.1415 16.1088 83.0932 15.508C83.0537 14.902 83.1539 14.2949 83.3861 13.733C83.6183 13.1711 83.9763 12.669 84.4332 12.2648C84.8788 11.8537 85.4112 11.5462 85.9917 11.3648C86.5721 11.1834 87.1859 11.1326 87.7886 11.2161C89.0741 11.4324 90.12 12.1675 90.7192 13.2053C90.8636 13.4647 90.9011 13.7695 90.8239 14.0557C90.7467 14.3419 90.5608 14.5873 90.3052 14.7405C90.0745 14.8721 89.8043 14.918 89.5426 14.8702C89.3798 14.8429 89.2251 14.7803 89.0896 14.6869C88.954 14.5934 88.8408 14.4715 88.7582 14.3297C88.6215 14.1003 88.4354 13.9038 88.2131 13.7543C87.9908 13.6047 87.738 13.5059 87.4727 13.4648C87.2012 13.416 86.9221 13.4307 86.6573 13.5077C86.3926 13.5846 86.1495 13.7217 85.9475 13.908C85.7502 14.0928 85.5962 14.3183 85.4964 14.5687C85.3967 14.819 85.3535 15.088 85.3701 15.3567C85.3919 15.8864 85.6969 16.4053 86.1545 16.708L89.2049 18.8161C89.7227 19.1759 90.1508 19.6483 90.4567 20.1973C90.7626 20.7462 90.938 21.3572 90.9697 21.9837C91.0202 22.6073 90.9234 23.2339 90.687 23.8138C90.4506 24.3937 90.0811 24.9109 89.608 25.3243C89.1477 25.7486 88.598 26.0658 87.9987 26.2528C87.3994 26.4398 86.7657 26.4919 86.1436 26.4053L86.0564 26.3837H86.0673ZM94.8154 26.4161C94.5538 26.3705 94.3166 26.2351 94.1453 26.0335C93.9741 25.832 93.8796 25.5771 93.8785 25.3134V5.79993C93.8771 5.65188 93.9054 5.50503 93.9618 5.36797C94.0182 5.23091 94.1016 5.10639 94.2071 5.0017C94.3126 4.897 94.4381 4.81424 94.5762 4.75825C94.7143 4.70226 94.8623 4.67417 95.0115 4.67561L95.2294 4.68642C95.7741 4.79453 96.1445 5.23777 96.1445 5.79993V11.3134H98.2907C98.8691 11.312 99.4421 11.424 99.9767 11.643C100.511 11.862 100.997 12.1836 101.406 12.5895C101.815 12.9953 102.139 13.4774 102.36 14.0079C102.581 14.5385 102.693 15.1071 102.692 15.681V25.3026C102.693 25.4659 102.658 25.6273 102.589 25.7755C102.52 25.9238 102.419 26.0551 102.293 26.1603C102.167 26.2655 102.02 26.342 101.861 26.3844C101.702 26.4267 101.536 26.4339 101.374 26.4053C100.829 26.308 100.437 25.8432 100.437 25.2918V15.6702C100.437 15.391 100.381 15.1146 100.273 14.8568C100.165 14.599 100.007 14.365 99.8076 14.1681C99.6082 13.9712 99.3715 13.8153 99.1112 13.7095C98.8509 13.6036 98.572 13.5499 98.2907 13.5513H96.1445V25.3026C96.1458 25.467 96.1103 25.6295 96.0408 25.7787C95.9712 25.9278 95.8693 26.0598 95.7422 26.1652C95.6152 26.2706 95.4662 26.3468 95.3059 26.3883C95.1457 26.4298 94.9782 26.4357 94.8154 26.4053V26.4161ZM110.373 13.454C110.064 13.3984 109.747 13.411 109.443 13.4909C109.14 13.5708 108.858 13.716 108.618 13.9162C108.378 14.1165 108.185 14.3668 108.053 14.6494C107.921 14.932 107.854 15.2399 107.856 15.5513V22.0486C107.854 22.3277 107.909 22.6044 108.015 22.8628C108.122 23.1211 108.279 23.356 108.477 23.5539C108.676 23.7518 108.912 23.9088 109.172 24.016C109.431 24.1231 109.71 24.1783 109.991 24.1783C110.558 24.1783 111.102 23.9621 111.506 23.5621C111.707 23.3644 111.867 23.1287 111.976 22.8687C112.084 22.6088 112.139 22.3299 112.137 22.0486V15.5405C112.137 14.5026 111.397 13.6161 110.362 13.4432L110.373 13.454ZM109.218 26.3405C108.199 26.1622 107.277 25.6328 106.613 24.8457C105.949 24.0585 105.587 23.0641 105.59 22.0378V15.5405C105.59 14.9024 105.731 14.2721 106.002 13.6937C106.273 13.1152 106.669 12.6026 107.161 12.1917C107.653 11.7808 108.229 11.4816 108.85 11.3149C109.47 11.1483 110.12 11.1183 110.754 11.227C111.777 11.403 112.705 11.9326 113.373 12.722C114.041 13.5114 114.406 14.5097 114.403 15.5405V22.0378C114.404 22.6135 114.289 23.1836 114.064 23.7146C113.84 24.2455 113.51 24.7266 113.096 25.1297C112.596 25.6276 111.983 25.9979 111.307 26.2087C110.632 26.4196 109.915 26.4648 109.218 26.3405Z" fill="#333545"/>
<path fill-rule="evenodd" clip-rule="evenodd" d="M131.802 12.557C131.839 12.4197 131.848 12.2764 131.83 12.1354C131.811 11.9944 131.764 11.8585 131.693 11.7354C131.61 11.6041 131.502 11.4906 131.375 11.4015C131.248 11.3124 131.104 11.2494 130.952 11.2164C130.671 11.1638 130.38 11.2194 130.139 11.3721C129.899 11.5248 129.725 11.763 129.655 12.0381C129.655 12.0921 128.435 16.9678 127.477 20.6759L127.455 20.7516L127.433 20.6759L125.254 12.0489C125.212 11.8383 125.106 11.6455 124.95 11.4967C124.794 11.3478 124.596 11.25 124.383 11.2164C124.318 11.2038 124.252 11.1966 124.186 11.1948C123.685 11.1948 123.25 11.5408 123.108 12.0381C123.097 12.0921 121.877 16.9678 120.929 20.6759L120.907 20.7516L120.886 20.6759C119.959 16.9678 118.707 12.0921 118.707 12.0381C118.655 11.8311 118.545 11.6434 118.388 11.4976C118.231 11.3518 118.036 11.2541 117.824 11.2164C117.643 11.1846 117.456 11.198 117.281 11.2555C117.107 11.3129 116.949 11.4126 116.823 11.5455C116.696 11.6785 116.605 11.8405 116.557 12.0171C116.51 12.1936 116.507 12.3792 116.55 12.557L119.829 25.5624C119.891 25.8007 120.03 26.0123 120.225 26.1646C120.419 26.3169 120.659 26.4016 120.907 26.4056C121.441 26.4056 121.866 26.0597 121.975 25.5624L124.154 16.9246L124.186 16.8489L124.208 16.9246C125.167 20.6759 126.387 25.5732 126.387 25.5732C126.452 25.8069 126.591 26.0138 126.783 26.1636C126.975 26.3134 127.211 26.3982 127.455 26.4056C127.706 26.4134 127.952 26.3331 128.149 26.1789C128.346 26.0247 128.482 25.8064 128.533 25.5624L131.802 12.557Z" fill="#333545"/>
</svg>
