<svg width="140" height="40" viewBox="0 0 140 40" fill="none" xmlns="http://www.w3.org/2000/svg">
<path d="M15.1612 6.62109V17.904H4.88077V6.62109H0V33.5545H4.88077V22.638H15.1612V33.5545H20.042V6.62109H15.1612Z" fill="#33475B"/>
<path d="M35.6623 24.8485C35.6623 25.9279 35.2369 26.9631 34.4797 27.7264C33.7225 28.4896 32.6954 28.9184 31.6245 28.9184C30.5536 28.9184 29.5266 28.4896 28.7694 27.7264C28.0121 26.9631 27.5867 25.9279 27.5867 24.8485V13.3125H22.957V24.8485C22.957 27.1633 23.8693 29.3833 25.4932 31.0201C27.1171 32.6569 29.3196 33.5764 31.6162 33.5764C33.9127 33.5764 36.1152 32.6569 37.7391 31.0201C39.363 29.3833 40.2753 27.1633 40.2753 24.8485V13.3125H35.6623V24.8485Z" fill="#33475B"/>
<path d="M69.9645 14.5006C69.9645 12.136 71.5165 11.3864 73.2168 11.3864C74.587 11.3864 76.3973 12.4373 77.581 13.7124L80.6133 10.1113C79.0995 8.04803 76.029 6.62109 73.5157 6.62109C68.4938 6.62109 64.8613 9.58584 64.8613 14.5006C64.8613 23.619 75.919 20.7266 75.919 25.8293C75.919 27.4033 74.4029 28.794 72.6668 28.794C69.9286 28.794 69.0415 27.4442 67.7836 26.0173L64.4189 29.5437C66.5712 32.2071 69.2256 33.5593 72.4061 33.5593C77.1769 33.5593 81.015 30.5584 81.015 25.8679C81.015 15.7443 69.9573 18.8899 69.9573 14.5006" fill="#33475B"/>
<path d="M138.371 29.2521C135.636 29.2521 134.858 28.059 134.858 26.232V18.1452H139.11V14.0476H134.858V8.64111L130.164 10.7646V27.2371C130.164 31.4504 133.048 33.5739 137.003 33.5739C137.624 33.5853 138.244 33.5353 138.854 33.4245L140 29.175C139.483 29.2112 138.89 29.2473 138.371 29.2473" fill="#33475B"/>
<path d="M53.2842 13.4469C50.9909 13.4469 49.3911 14.117 47.8439 15.6475V6.78223H43.207V23.2137C43.207 29.3649 47.6191 33.5782 52.5764 33.5782C58.0765 33.5782 62.9143 29.2902 62.9143 23.515C62.9143 17.8121 58.4615 13.4493 53.2842 13.4493V13.4469ZM53.2555 28.8756C52.215 28.8756 51.1979 28.5646 50.3327 27.9819C49.4675 27.3993 48.7932 26.5711 48.395 25.6021C47.9968 24.6332 47.8926 23.5669 48.0956 22.5383C48.2986 21.5097 48.7997 20.5648 49.5355 19.8232C50.2712 19.0816 51.2086 18.5765 52.2292 18.3719C53.2497 18.1673 54.3075 18.2723 55.2688 18.6737C56.2302 19.075 57.0518 19.7547 57.6299 20.6267C58.208 21.4988 58.5165 22.524 58.5165 23.5728C58.5165 24.9792 57.9623 26.328 56.9756 27.3225C55.989 28.3169 54.6508 28.8756 53.2555 28.8756Z" fill="#33475B"/>
<path d="M103.632 23.2693C103.632 17.4844 98.8039 13.2061 93.2942 13.2061C88.3369 13.2061 83.9248 17.4194 83.9248 23.5706V40.0117H88.5616V31.1343C90.1065 32.6625 91.7087 33.335 93.9996 33.335C99.1769 33.335 103.63 28.9747 103.63 23.2693H103.632ZM99.2415 23.2115C99.2415 24.2603 98.9329 25.2855 98.3548 26.1575C97.7767 27.0296 96.9551 27.7093 95.9938 28.1106C95.0324 28.512 93.9746 28.617 92.9541 28.4124C91.9336 28.2078 90.9962 27.7027 90.2604 26.9611C89.5246 26.2195 89.0236 25.2746 88.8206 24.246C88.6176 23.2174 88.7218 22.1511 89.12 21.1822C89.5181 20.2132 90.1925 19.385 91.0576 18.8024C91.9228 18.2197 92.9399 17.9087 93.9805 17.9087C95.3758 17.9087 96.7139 18.4674 97.7006 19.4618C98.6872 20.4563 99.2415 21.8051 99.2415 23.2115Z" fill="#33475B"/>
<path d="M118.612 12.9798V8.28439C119.228 7.99445 119.749 7.53424 120.115 6.95731C120.481 6.38038 120.677 5.71047 120.681 5.02558V4.91711C120.681 3.95821 120.303 3.03858 119.63 2.36053C118.957 1.68249 118.045 1.30156 117.094 1.30156H116.986C116.035 1.30156 115.122 1.68249 114.449 2.36053C113.777 3.03858 113.399 3.95821 113.399 4.91711V5.02558C113.402 5.71047 113.598 6.38038 113.964 6.95731C114.331 7.53424 114.852 7.99445 115.467 8.28439V12.9798C113.698 13.2526 112.032 13.9918 110.637 15.1226L97.8622 5.09307C97.9526 4.76233 98.0008 4.42133 98.0057 4.0783C98.0071 3.27254 97.7714 2.48445 97.3284 1.81372C96.8854 1.14298 96.255 0.619745 95.5169 0.31018C94.7788 0.000615035 93.9663 -0.0813674 93.182 0.0746023C92.3977 0.230572 91.6769 0.617487 91.1108 1.18641C90.5447 1.75533 90.1587 2.48069 90.0016 3.27076C89.8446 4.06082 89.9235 4.88009 90.2284 5.62493C90.5334 6.36977 91.0506 7.00673 91.7147 7.45523C92.3789 7.90373 93.1601 8.14363 93.9595 8.14459C94.6585 8.14144 95.3445 7.95362 95.9491 7.59985L108.53 17.4655C107.4 19.1864 106.81 21.2107 106.838 23.2745C106.865 25.3383 107.509 27.3458 108.685 29.0352L104.859 32.8918C104.55 32.7922 104.228 32.7394 103.903 32.7351C103.246 32.7356 102.605 32.9322 102.06 33.3C101.514 33.6678 101.089 34.1903 100.838 34.8015C100.587 35.4128 100.522 36.0852 100.65 36.734C100.778 37.3827 101.094 37.9787 101.558 38.4464C102.022 38.9141 102.613 39.2327 103.257 39.3619C103.901 39.4911 104.568 39.425 105.174 39.1721C105.781 38.9192 106.299 38.4907 106.664 37.9409C107.029 37.3911 107.224 36.7446 107.224 36.0831C107.22 35.7558 107.168 35.4308 107.069 35.119L110.854 31.3034C112.089 32.2608 113.524 32.9208 115.051 33.2328C116.577 33.5447 118.154 33.5004 119.661 33.1032C121.168 32.706 122.565 31.9664 123.744 30.9412C124.924 29.9159 125.855 28.6321 126.466 27.1882C127.078 25.7442 127.353 24.1784 127.271 22.6106C127.189 21.0429 126.753 19.5147 125.995 18.1433C125.237 16.7719 124.177 15.5936 122.897 14.6986C121.618 13.8035 120.152 13.2156 118.612 12.9798ZM117.043 28.4206C116.008 28.4196 114.996 28.1093 114.135 27.5288C113.275 26.9483 112.604 26.1237 112.209 25.1592C111.813 24.1947 111.71 23.1336 111.912 22.11C112.114 21.0864 112.613 20.1463 113.346 19.4084C114.078 18.6706 115.011 18.1681 116.027 17.9646C117.042 17.761 118.095 17.8655 119.052 18.2648C120.008 18.6641 120.826 19.3403 121.402 20.2079C121.977 21.0756 122.285 22.0957 122.285 23.1395C122.285 24.5395 121.733 25.8821 120.751 26.8721C119.769 27.862 118.437 28.4182 117.048 28.4182" fill="#FF7A59"/>
</svg>
